<svg version="1.1" baseProfile="full" width="840.0" height="856.0" viewBox="0 0 840 856" xmlns="http://www.w3.org/2000/svg" xmlns:xlink="http://www.w3.org/1999/xlink" xmlns:ev="http://www.w3.org/2001/xml-events">
	<desc >[Commodity|_id: string|name: enum(Cattle,Cocoa,Coffee,Palm_oil,Rubber,Soy,Wood)]
	
	[Corporation|_id: ObjectId|name: string]
	[Corporation] 1 --&gt; * [Product]
	[Corporation] 1 --&gt; * [Supplier]
	
	[Farmer|_id: ObjectId|name: string]
	[Farmer] 1 --&gt; * [`&lt;Invite&gt;`]
	[Farmer] 1 --&gt; * [Plot]
	
	[`&lt;Invite&gt;`|_id: ObjectId|sender: enum(Supplier,Farmer)|receiver: enum(Supplier,Farmer)|lineId: string|created_at: Date]
	[`&lt;Invite&gt;`] 1 --&gt; * [Plot]
	
	[Plot|_id: ObjectId|filename: string|original_filename: string|uploaded_at: Date]
	
	[Product|_id: string|name: string]
	[Product] 1 --&gt; * [Commodity]
	[Product] 1 --&gt; * [`&lt;Invite&gt;`]
	
	[Supplier|_id: ObjectId|name: string]
	[Supplier] 1 --&gt; * [`&lt;Invite&gt;`]
	[Supplier] 1 --&gt; * [Farmer]
	[Supplier] 1 --&gt; * [Product]
	</desc>
	<g stroke-width="1.0" text-align="left" font="12pt Helvetica, Arial, sans-serif" font-size="12pt" font-family="Helvetica" font-weight="normal" font-style="normal">
		<g font-family="Helvetica" font-size="12pt" font-weight="bold" font-style="normal" stroke-width="3.0" stroke-linejoin="round" stroke-linecap="round" stroke="#33322E">
			<g stroke="transparent" fill="transparent">
				<rect x="0.0" y="0.0" height="856.0" width="840.0" stroke="none"></rect>
			</g>
			<g transform="translate(8, 8)" fill="#33322E">
				<g transform="translate(20, 20)" fill="#33322E" font-family="Helvetica" font-size="12pt" font-weight="normal" font-style="normal">
					<text x="357.5" y="89.0" stroke="none">1</text>
					<text x="220.7" y="264.0" stroke="none">*</text>
					<g stroke-dasharray="6 6">
						<path d="M349.5 69.0 L229 116 L229 184 L229 184 L229 252 L229 252 L233.00124411456613 265.60422998952487 L233.0 265.6 " fill="none"></path>
					</g>
					<path d="M226.0 260.7 L233.0 265.6 L236.2 257.7 L234.9 272.0 Z"></path>
					<text x="440.6" y="95.3" stroke="none">1</text>
					<text x="546.0" y="128.0" stroke="none">*</text>
					<g stroke-dasharray="6 6">
						<path d="M457.5 75.3 L538 116 L538 129.33333333333334 L538.0 129.3 " fill="none"></path>
					</g>
					<path d="M532.7 122.7 L538.0 129.3 L543.3 122.7 L538.0 136.0 Z"></path>
					<text x="564.5" y="388.0" stroke="none">1</text>
					<text x="618.1" y="400.0" stroke="none">*</text>
					<g stroke-dasharray="6 6">
						<path d="M581.4 368.0 L599.5 388 L606.9806979000014 402.1099342504089 L607.0 402.1 " fill="none"></path>
					</g>
					<path d="M599.1 398.7 L607.0 402.1 L608.6 393.7 L610.1 408.0 Z"></path>
					<text x="517.8" y="388.0" stroke="none">1</text>
					<text x="483.8" y="632.0" stroke="none">*</text>
					<g stroke-dasharray="6 6">
						<path d="M509.8 368.0 L498 388 L498 504 L498 504 L498 620 L498 620 L498 633.3333333333334 L498.0 633.3 " fill="none"></path>
					</g>
					<path d="M492.7 626.7 L498.0 633.3 L503.3 626.7 L498.0 640.0 Z"></path>
					<text x="669.0" y="620.0" stroke="none">1</text>
					<text x="576.3" y="655.3" stroke="none">*</text>
					<g stroke-dasharray="6 6">
						<path d="M661.0 600.0 L661 620 L596.18250469359 659.7653345438098 L596.2 659.8 " fill="none"></path>
					</g>
					<path d="M599.1 651.7 L596.2 659.8 L604.7 660.8 L590.5 663.3 Z"></path>
					<text x="242.9" y="388.0" stroke="none">1</text>
					<text x="214.8" y="448.0" stroke="none">*</text>
					<g stroke-dasharray="6 6">
						<path d="M234.9 368.0 L229 388 L229 449.3333333333333 L229.0 449.3 " fill="none"></path>
					</g>
					<path d="M223.7 442.7 L229.0 449.3 L234.3 442.7 L229.0 456.0 Z"></path>
					<text x="284.1" y="349.1" stroke="none">1</text>
					<text x="651.2" y="400.0" stroke="none">*</text>
					<g stroke-dasharray="6 6">
						<path d="M301.0 329.1 L639.5 388 L641.9919564018428 401.44497407505884 L642.0 401.4 " fill="none"></path>
					</g>
					<path d="M635.5 395.9 L642.0 401.4 L646.0 393.9 L643.2 408.0 Z"></path>
					<text x="574.1" y="226.1" stroke="none">1</text>
					<text x="702.1" y="400.0" stroke="none">*</text>
					<g stroke-dasharray="6 6">
						<path d="M591.0 206.1 L701 252 L701 320 L701 320 L701 388 L701 388 L696.2767194979914 401.69751345582483 L696.3 401.7 " fill="none"></path>
					</g>
					<path d="M693.4 393.7 L696.3 401.7 L703.5 397.1 L694.1 408.0 Z"></path>
					<text x="546.0" y="252.0" stroke="none">1</text>
					<text x="523.8" y="264.0" stroke="none">*</text>
					<g stroke-dasharray="6 6">
						<path d="M538.0 232.0 L538 252 L538 265.3333333333333 L538.0 265.3 " fill="none"></path>
					</g>
					<path d="M532.7 258.7 L538.0 265.3 L543.3 258.7 L538.0 272.0 Z"></path>
					<text x="493.0" y="249.1" stroke="none">1</text>
					<text x="286.8" y="295.1" stroke="none">*</text>
					<g stroke-dasharray="6 6">
						<path d="M485.0 229.1 L458 252 L307.33955806304283 301.0187083814023 L307.3 301.0 " fill="none"></path>
					</g>
					<path d="M312.0 293.9 L307.3 301.0 L315.3 304.0 L301.0 303.1 Z"></path>
					<g data-name="Commodity">
						<g fill="#eee8d5" stroke="#33322E" data-name="Commodity">
							<rect x="0.0" y="456.0" height="96.0" width="458.0" data-name="Commodity"></rect>
							<path d="M0.0 488.0 L458.0 488.0" fill="none" data-name="Commodity"></path>
							<path d="M0.0 520.0 L458.0 520.0" fill="none" data-name="Commodity"></path>
						</g>
						<g transform="translate(0, 456)" font-family="Helvetica" font-size="12pt" font-weight="bold" font-style="normal" data-name="Commodity">
							<g transform="translate(8, 8)" fill="#33322E" text-align="center" data-name="Commodity">
								<text x="221.0" y="14.1" stroke="none" text-anchor="middle" data-name="Commodity">Commodity</text>
								
							</g>
						</g>
						<g transform="translate(0, 488)" font-family="Helvetica" font-size="12pt" font-weight="normal" font-style="normal" data-name="Commodity">
							<g transform="translate(8, 8)" fill="#33322E" text-align="left" data-name="Commodity">
								<text x="0.0" y="14.1" stroke="none" data-name="Commodity">_id: string</text>
								
							</g>
						</g>
						<g transform="translate(0, 520)" font-family="Helvetica" font-size="12pt" font-weight="normal" font-style="normal" data-name="Commodity">
							<g transform="translate(8, 8)" fill="#33322E" text-align="left" data-name="Commodity">
								<text x="0.0" y="14.1" stroke="none" data-name="Commodity">name: enum(Cattle,Cocoa,Coffee,Palm_oil,Rubber,Soy,Wood)</text>
								
							</g>
						</g>
					</g>
					<g data-name="Corporation">
						<g fill="#eee8d5" stroke="#33322E" data-name="Corporation">
							<rect x="349.5" y="0.0" height="96.0" width="108.0" data-name="Corporation"></rect>
							<path d="M349.5 32.0 L457.5 32.0" fill="none" data-name="Corporation"></path>
							<path d="M349.5 64.0 L457.5 64.0" fill="none" data-name="Corporation"></path>
						</g>
						<g transform="translate(349.5, 0)" font-family="Helvetica" font-size="12pt" font-weight="bold" font-style="normal" data-name="Corporation">
							<g transform="translate(8, 8)" fill="#33322E" text-align="center" data-name="Corporation">
								<text x="46.0" y="14.1" stroke="none" text-anchor="middle" data-name="Corporation">Corporation</text>
								
							</g>
						</g>
						<g transform="translate(349.5, 32)" font-family="Helvetica" font-size="12pt" font-weight="normal" font-style="normal" data-name="Corporation">
							<g transform="translate(8, 8)" fill="#33322E" text-align="left" data-name="Corporation">
								<text x="0.0" y="14.1" stroke="none" data-name="Corporation">_id: ObjectId</text>
								
							</g>
						</g>
						<g transform="translate(349.5, 64)" font-family="Helvetica" font-size="12pt" font-weight="normal" font-style="normal" data-name="Corporation">
							<g transform="translate(8, 8)" fill="#33322E" text-align="left" data-name="Corporation">
								<text x="0.0" y="14.1" stroke="none" data-name="Corporation">name: string</text>
								
							</g>
						</g>
					</g>
					<g data-name="Product">
						<g fill="#eee8d5" stroke="#33322E" data-name="Product">
							<rect x="197.0" y="272.0" height="96.0" width="104.0" data-name="Product"></rect>
							<path d="M197.0 304.0 L301.0 304.0" fill="none" data-name="Product"></path>
							<path d="M197.0 336.0 L301.0 336.0" fill="none" data-name="Product"></path>
						</g>
						<g transform="translate(197, 272)" font-family="Helvetica" font-size="12pt" font-weight="bold" font-style="normal" data-name="Product">
							<g transform="translate(8, 8)" fill="#33322E" text-align="center" data-name="Product">
								<text x="44.0" y="14.1" stroke="none" text-anchor="middle" data-name="Product">Product</text>
								
							</g>
						</g>
						<g transform="translate(197, 304)" font-family="Helvetica" font-size="12pt" font-weight="normal" font-style="normal" data-name="Product">
							<g transform="translate(8, 8)" fill="#33322E" text-align="left" data-name="Product">
								<text x="0.0" y="14.1" stroke="none" data-name="Product">_id: string</text>
								
							</g>
						</g>
						<g transform="translate(197, 336)" font-family="Helvetica" font-size="12pt" font-weight="normal" font-style="normal" data-name="Product">
							<g transform="translate(8, 8)" fill="#33322E" text-align="left" data-name="Product">
								<text x="0.0" y="14.1" stroke="none" data-name="Product">name: string</text>
								
							</g>
						</g>
					</g>
					<g data-name="Supplier">
						<g fill="#eee8d5" stroke="#33322E" data-name="Supplier">
							<rect x="485.0" y="136.0" height="96.0" width="106.0" data-name="Supplier"></rect>
							<path d="M485.0 168.0 L591.0 168.0" fill="none" data-name="Supplier"></path>
							<path d="M485.0 200.0 L591.0 200.0" fill="none" data-name="Supplier"></path>
						</g>
						<g transform="translate(485, 136)" font-family="Helvetica" font-size="12pt" font-weight="bold" font-style="normal" data-name="Supplier">
							<g transform="translate(8, 8)" fill="#33322E" text-align="center" data-name="Supplier">
								<text x="45.0" y="14.1" stroke="none" text-anchor="middle" data-name="Supplier">Supplier</text>
								
							</g>
						</g>
						<g transform="translate(485, 168)" font-family="Helvetica" font-size="12pt" font-weight="normal" font-style="normal" data-name="Supplier">
							<g transform="translate(8, 8)" fill="#33322E" text-align="left" data-name="Supplier">
								<text x="0.0" y="14.1" stroke="none" data-name="Supplier">_id: ObjectId</text>
								
							</g>
						</g>
						<g transform="translate(485, 200)" font-family="Helvetica" font-size="12pt" font-weight="normal" font-style="normal" data-name="Supplier">
							<g transform="translate(8, 8)" fill="#33322E" text-align="left" data-name="Supplier">
								<text x="0.0" y="14.1" stroke="none" data-name="Supplier">name: string</text>
								
							</g>
						</g>
					</g>
					<g data-name="Farmer">
						<g fill="#eee8d5" stroke="#33322E" data-name="Farmer">
							<rect x="485.0" y="272.0" height="96.0" width="106.0" data-name="Farmer"></rect>
							<path d="M485.0 304.0 L591.0 304.0" fill="none" data-name="Farmer"></path>
							<path d="M485.0 336.0 L591.0 336.0" fill="none" data-name="Farmer"></path>
						</g>
						<g transform="translate(485, 272)" font-family="Helvetica" font-size="12pt" font-weight="bold" font-style="normal" data-name="Farmer">
							<g transform="translate(8, 8)" fill="#33322E" text-align="center" data-name="Farmer">
								<text x="45.0" y="14.1" stroke="none" text-anchor="middle" data-name="Farmer">Farmer</text>
								
							</g>
						</g>
						<g transform="translate(485, 304)" font-family="Helvetica" font-size="12pt" font-weight="normal" font-style="normal" data-name="Farmer">
							<g transform="translate(8, 8)" fill="#33322E" text-align="left" data-name="Farmer">
								<text x="0.0" y="14.1" stroke="none" data-name="Farmer">_id: ObjectId</text>
								
							</g>
						</g>
						<g transform="translate(485, 336)" font-family="Helvetica" font-size="12pt" font-weight="normal" font-style="normal" data-name="Farmer">
							<g transform="translate(8, 8)" fill="#33322E" text-align="left" data-name="Farmer">
								<text x="0.0" y="14.1" stroke="none" data-name="Farmer">name: string</text>
								
							</g>
						</g>
					</g>
					<g data-name="`&lt;Invite&gt;`">
						<g fill="#eee8d5" stroke="#33322E" data-name="`&lt;Invite&gt;`">
							<rect x="538.0" y="408.0" height="192.0" width="246.0" data-name="`&lt;Invite&gt;`"></rect>
							<path d="M538.0 440.0 L784.0 440.0" fill="none" data-name="`&lt;Invite&gt;`"></path>
							<path d="M538.0 472.0 L784.0 472.0" fill="none" data-name="`&lt;Invite&gt;`"></path>
							<path d="M538.0 504.0 L784.0 504.0" fill="none" data-name="`&lt;Invite&gt;`"></path>
							<path d="M538.0 536.0 L784.0 536.0" fill="none" data-name="`&lt;Invite&gt;`"></path>
							<path d="M538.0 568.0 L784.0 568.0" fill="none" data-name="`&lt;Invite&gt;`"></path>
						</g>
						<g transform="translate(538, 408)" font-family="Helvetica" font-size="12pt" font-weight="bold" font-style="normal" data-name="`&lt;Invite&gt;`">
							<g transform="translate(8, 8)" fill="#33322E" text-align="center" data-name="`&lt;Invite&gt;`">
								<text x="115.0" y="14.1" stroke="none" text-anchor="middle" data-name="`&lt;Invite&gt;`">`&lt;Invite&gt;`</text>
								
							</g>
						</g>
						<g transform="translate(538, 440)" font-family="Helvetica" font-size="12pt" font-weight="normal" font-style="normal" data-name="`&lt;Invite&gt;`">
							<g transform="translate(8, 8)" fill="#33322E" text-align="left" data-name="`&lt;Invite&gt;`">
								<text x="0.0" y="14.1" stroke="none" data-name="`&lt;Invite&gt;`">_id: ObjectId</text>
								
							</g>
						</g>
						<g transform="translate(538, 472)" font-family="Helvetica" font-size="12pt" font-weight="normal" font-style="normal" data-name="`&lt;Invite&gt;`">
							<g transform="translate(8, 8)" fill="#33322E" text-align="left" data-name="`&lt;Invite&gt;`">
								<text x="0.0" y="14.1" stroke="none" data-name="`&lt;Invite&gt;`">sender: enum(Supplier,Farmer)</text>
								
							</g>
						</g>
						<g transform="translate(538, 504)" font-family="Helvetica" font-size="12pt" font-weight="normal" font-style="normal" data-name="`&lt;Invite&gt;`">
							<g transform="translate(8, 8)" fill="#33322E" text-align="left" data-name="`&lt;Invite&gt;`">
								<text x="0.0" y="14.1" stroke="none" data-name="`&lt;Invite&gt;`">receiver: enum(Supplier,Farmer)</text>
								
							</g>
						</g>
						<g transform="translate(538, 536)" font-family="Helvetica" font-size="12pt" font-weight="normal" font-style="normal" data-name="`&lt;Invite&gt;`">
							<g transform="translate(8, 8)" fill="#33322E" text-align="left" data-name="`&lt;Invite&gt;`">
								<text x="0.0" y="14.1" stroke="none" data-name="`&lt;Invite&gt;`">lineId: string</text>
								
							</g>
						</g>
						<g transform="translate(538, 568)" font-family="Helvetica" font-size="12pt" font-weight="normal" font-style="normal" data-name="`&lt;Invite&gt;`">
							<g transform="translate(8, 8)" fill="#33322E" text-align="left" data-name="`&lt;Invite&gt;`">
								<text x="0.0" y="14.1" stroke="none" data-name="`&lt;Invite&gt;`">created_at: Date</text>
								
							</g>
						</g>
					</g>
					<g data-name="Plot">
						<g fill="#eee8d5" stroke="#33322E" data-name="Plot">
							<rect x="405.5" y="640.0" height="160.0" width="185.0" data-name="Plot"></rect>
							<path d="M405.5 672.0 L590.5 672.0" fill="none" data-name="Plot"></path>
							<path d="M405.5 704.0 L590.5 704.0" fill="none" data-name="Plot"></path>
							<path d="M405.5 736.0 L590.5 736.0" fill="none" data-name="Plot"></path>
							<path d="M405.5 768.0 L590.5 768.0" fill="none" data-name="Plot"></path>
						</g>
						<g transform="translate(405.5, 640)" font-family="Helvetica" font-size="12pt" font-weight="bold" font-style="normal" data-name="Plot">
							<g transform="translate(8, 8)" fill="#33322E" text-align="center" data-name="Plot">
								<text x="84.5" y="14.1" stroke="none" text-anchor="middle" data-name="Plot">Plot</text>
								
							</g>
						</g>
						<g transform="translate(405.5, 672)" font-family="Helvetica" font-size="12pt" font-weight="normal" font-style="normal" data-name="Plot">
							<g transform="translate(8, 8)" fill="#33322E" text-align="left" data-name="Plot">
								<text x="0.0" y="14.1" stroke="none" data-name="Plot">_id: ObjectId</text>
								
							</g>
						</g>
						<g transform="translate(405.5, 704)" font-family="Helvetica" font-size="12pt" font-weight="normal" font-style="normal" data-name="Plot">
							<g transform="translate(8, 8)" fill="#33322E" text-align="left" data-name="Plot">
								<text x="0.0" y="14.1" stroke="none" data-name="Plot">filename: string</text>
								
							</g>
						</g>
						<g transform="translate(405.5, 736)" font-family="Helvetica" font-size="12pt" font-weight="normal" font-style="normal" data-name="Plot">
							<g transform="translate(8, 8)" fill="#33322E" text-align="left" data-name="Plot">
								<text x="0.0" y="14.1" stroke="none" data-name="Plot">original_filename: string</text>
								
							</g>
						</g>
						<g transform="translate(405.5, 768)" font-family="Helvetica" font-size="12pt" font-weight="normal" font-style="normal" data-name="Plot">
							<g transform="translate(8, 8)" fill="#33322E" text-align="left" data-name="Plot">
								<text x="0.0" y="14.1" stroke="none" data-name="Plot">uploaded_at: Date</text>
								
							</g>
						</g>
					</g>
				</g>
			</g>
		</g>
	</g>
</svg>